<?xml version="1.0" encoding="utf-8"?>
<!-- Generator: Adobe Illustrator 25.0.1, SVG Export Plug-In . SVG Version: 6.00 Build 0)  -->
<svg version="1.1" xmlns="http://www.w3.org/2000/svg" xmlns:xlink="http://www.w3.org/1999/xlink" x="0px" y="0px" width="128px"
	 height="128px" viewBox="0 0 128 128" style="enable-background:new 0 0 128 128;" xml:space="preserve">
<style type="text/css">
	.st0{display:none;}
	.st1{display:inline;fill:#03429D;}
	.st2{fill:none;}
	.st3{fill:#F8F788;}
	.st4{fill:#03429D;}
	.st5{fill:#FFFFFF;}
	.st6{fill:#FFAD90;}
	.st7{fill:none;stroke:#03429D;stroke-miterlimit:10;}
	.st8{fill:#9EBAE3;}
</style>
<g id="background" class="st0">
</g>
<g id="Layer_1">
	<rect class="st4" width="113" height="1"/>
	<rect x="-63.5" y="63.5" transform="matrix(-1.836970e-16 1 -1 -1.836970e-16 64.5 63.5)" class="st4" width="128" height="1"/>
	<rect x="82.5" y="89.5" transform="matrix(-1.836970e-16 1 -1 -1.836970e-16 194.5 -14.5)" class="st4" width="44" height="1"/>
	<rect x="52" y="35" transform="matrix(-1 -1.224647e-16 1.224647e-16 -1 132 71)" class="st4" width="28" height="1"/>
	<rect x="64" y="16" transform="matrix(-1 -1.224647e-16 1.224647e-16 -1 192 33)" class="st4" width="64" height="1"/>
	<rect x="64" y="16" transform="matrix(-1 -1.224647e-16 1.224647e-16 -1 129 48)" class="st4" width="1" height="16"/>
	<rect x="4" y="16" transform="matrix(-1 -1.224647e-16 1.224647e-16 -1 9 128)" class="st4" width="1" height="96"/>
	<rect x="59" y="44" transform="matrix(-1 -1.224647e-16 1.224647e-16 -1 119 156)" class="st4" width="1" height="68"/>
	<rect x="72" y="80" transform="matrix(-1 -1.224647e-16 1.224647e-16 -1 145 192)" class="st4" width="1" height="32"/>
	<rect x="79" y="80" transform="matrix(-1 -1.224647e-16 1.224647e-16 -1 159 192)" class="st4" width="1" height="32"/>
	<rect x="116" y="24" transform="matrix(-1 -1.224647e-16 1.224647e-16 -1 232.9998 76)" class="st4" width="1" height="28"/>
	<rect x="119" y="24" transform="matrix(-1 -1.224647e-16 1.224647e-16 -1 238.9998 76)" class="st4" width="1" height="28"/>
	<rect x="116" y="24" transform="matrix(-1 -1.224647e-16 1.224647e-16 -1 236 49)" class="st4" width="4" height="1"/>
	<rect x="116" y="51" transform="matrix(-1 -1.224647e-16 1.224647e-16 -1 236 103)" class="st4" width="4" height="1"/>
	<rect x="75.5" y="76.5" transform="matrix(-1.836970e-16 1 -1 -1.836970e-16 156.5 4.5)" class="st4" width="1" height="8"/>
	<rect x="75.5" y="107.5" transform="matrix(-1.836970e-16 1 -1 -1.836970e-16 187.5 35.5)" class="st4" width="1" height="8"/>
	<rect x="59" y="16" class="st4" width="1" height="16"/>
	<rect x="127" y="16" transform="matrix(-1 -1.224647e-16 1.224647e-16 -1 255 76)" class="st4" width="1" height="44"/>
	<rect x="64" y="44" transform="matrix(-1 -1.224647e-16 1.224647e-16 -1 129 104)" class="st4" width="1" height="16"/>
	<rect x="8" y="23" transform="matrix(-1 -1.224647e-16 1.224647e-16 -1 44 47)" class="st4" width="28" height="1"/>
	<rect x="5" y="16" transform="matrix(-1 -1.224647e-16 1.224647e-16 -1 64 33)" class="st4" width="54" height="1"/>
	<rect x="4" y="111" transform="matrix(-1 -1.224647e-16 1.224647e-16 -1 64 223)" class="st4" width="56" height="1"/>
	<rect x="52" y="40" transform="matrix(-1 -1.224647e-16 1.224647e-16 -1 132 81)" class="st4" width="28" height="1"/>
	<rect x="64" y="59" transform="matrix(-1 -1.224647e-16 1.224647e-16 -1 132 119)" class="st4" width="4" height="1"/>
	<rect x="84" y="59" transform="matrix(-1 -1.224647e-16 1.224647e-16 -1 212 119)" class="st4" width="44" height="1"/>
	<rect x="86.5" y="89.5" transform="matrix(-1.836970e-16 1 -1 -1.836970e-16 198.5 -18.5)" class="st4" width="44" height="1"/>
	<rect x="82.5" y="97.5" transform="matrix(-1.836970e-16 1 -1 -1.836970e-16 210.5 -14.5)" class="st4" width="60" height="1"/>
	<rect y="127" class="st4" width="113" height="1"/>
	<circle class="st4" cx="16" cy="100" r="4"/>
	<circle class="st3" cx="16" cy="100" r="3"/>
	<circle class="st4" cx="28" cy="100" r="4"/>
	<circle class="st5" cx="28" cy="100" r="3"/>
	<circle class="st4" cx="76" cy="72" r="4"/>
	<circle class="st5" cx="76" cy="72" r="3"/>
	<circle class="st4" cx="76" cy="59" r="4"/>
	<circle class="st5" cx="76" cy="59" r="3"/>
	<circle class="st4" cx="108" cy="48" r="4"/>
	<circle class="st6" cx="108" cy="48" r="3"/>
	<rect x="73" y="81" class="st3" width="6" height="30"/>
</g>
</svg>
